<svg id="Capa_1" data-name="Capa 1" xmlns="http://www.w3.org/2000/svg" viewBox="0 0 5333 1500"><defs><style>.cls-1{font-size:818.5px;font-family:MADECanvas, MADE Canvas;}.cls-1,.cls-6,.cls-7{fill:#626262;}.cls-2{letter-spacing:0.01em;}.cls-3{letter-spacing:-0.01em;}.cls-4{letter-spacing:0em;}.cls-5{letter-spacing:-0.01em;}.cls-7{font-size:151.11px;font-family:Mogena, Mogena;}</style></defs><title>moon47store2</title><text class="cls-1" transform="translate(520.5 943.16)">M<tspan class="cls-2" x="731.74" y="0">o</tspan><tspan class="cls-3" x="1223.64" y="0">o</tspan><tspan class="cls-4" x="1699.18" y="0">n S</tspan><tspan class="cls-5" x="2849.15" y="0">to</tspan><tspan x="3575.96" y="0">r</tspan></text><path class="cls-6" d="M4683,535a22.47,22.47,0,0,1-4.27,3.65c-7.58,5.58-15.13,11.2-22.39,17.19a186.66,186.66,0,0,0-26.48,26.4,200,200,0,0,0-44.65,108.7,198.56,198.56,0,0,0,.85,46.29,203.84,203.84,0,0,0,14.72,52.54,198.63,198.63,0,0,0,19.7,35.22A202.7,202.7,0,0,0,4664,870.54a197.8,197.8,0,0,0,43.72,25.39,203.18,203.18,0,0,0,33.11,10.94,243.08,243.08,0,0,0,28,4.32c12.59,1.37,25.19,1.06,37.8.76a35,35,0,0,1,5.12.15c.29,0,.66,0,.72.39s-.33.36-.53.51c-7.77,5.57-15.48,11.24-23.34,16.69-4.9,3.4-10.2,6.2-15.41,9.12a214.94,214.94,0,0,1-96.81,26.32,226.47,226.47,0,0,1-41.29-2.66,215.42,215.42,0,0,1-125.78-67.79,218.61,218.61,0,0,1-25.11-33.59,215,215,0,0,1-18.91-39.74,211,211,0,0,1-10.32-42.3,213.64,213.64,0,0,1-1.88-35.65,211.36,211.36,0,0,1,4.46-37.25,216.5,216.5,0,0,1,9.18-31.51A216.25,216.25,0,0,1,4538.32,579a221.78,221.78,0,0,1,31-19.49A214,214,0,0,1,4624.15,540a211.17,211.17,0,0,1,38.81-4.61c6.28-.16,12.56-.38,18.84-.58A2,2,0,0,1,4683,535Z"/><path class="cls-6" d="M4771.25,925a99.44,99.44,0,0,1-9.38,5.12,202.9,202.9,0,0,1-57.6,19.15,189.71,189.71,0,0,1-36.29,3c-22.47-.47-44.47-3.91-65.76-11.33a206.05,206.05,0,0,1-42.48-20.74,198.85,198.85,0,0,1-34.6-28,203.92,203.92,0,0,1-32-41.59,197.79,197.79,0,0,1-26.49-85.75,165.74,165.74,0,0,1-.32-25.5q1-12.25,2.88-24.4c2.82-18.09,8.84-35.16,16.69-51.64a195.93,195.93,0,0,1,22.58-36.42,202.93,202.93,0,0,1,29.12-30.14A209.66,209.66,0,0,1,4564,577.65a197,197,0,0,1,44.41-20.1,244.28,244.28,0,0,1,30.82-7.18,16.8,16.8,0,0,1,1.89-.2c.3,0,.72-.17.87.23s-.27.49-.46.69q-3.56,3.57-7.15,7.12a205.78,205.78,0,0,0-25.49,30.57,219.93,219.93,0,0,0-26.14,51.83,184.21,184.21,0,0,0-9.32,41.39c-.88,8.18-2,16.33-2.31,24.56a189.15,189.15,0,0,0,.79,22,205.26,205.26,0,0,0,6.36,36A226.69,226.69,0,0,0,4596,810c7,13.46,15.92,25.55,25.31,37.38a194.51,194.51,0,0,0,28.25,28.26A210,210,0,0,0,4680.5,897a220.72,220.72,0,0,0,33.08,15.19,203.69,203.69,0,0,0,46.56,11.22c3.48.41,7,.85,10.43,1.28A.68.68,0,0,1,4771.25,925Z"/><text class="cls-7" transform="translate(2716 782.47)">47</text></svg>