<svg id="Capa_1" data-name="Capa 1" xmlns="http://www.w3.org/2000/svg" viewBox="0 0 2480 2480"><defs><style>.cls-1{font-size:343.27px;font-family:MADECanvas, MADE Canvas;}.cls-1,.cls-5,.cls-6{fill:#626262;}.cls-2{letter-spacing:0.01em;}.cls-3{letter-spacing:-0.01em;}.cls-4{letter-spacing:0em;}.cls-6{font-size:63.37px;font-family:Mogena, Mogena;}</style></defs><title>moon47store</title><text class="cls-1" transform="translate(340 1321.01)">M<tspan class="cls-2" x="306.88" y="0">o</tspan><tspan class="cls-3" x="513.18" y="0">o</tspan><tspan class="cls-4" x="712.61" y="0">n S</tspan><tspan class="cls-3" x="1194.89" y="0">to</tspan><tspan x="1499.7" y="0">r</tspan></text><path class="cls-5" d="M2085.67,1149.81a9.56,9.56,0,0,1-1.79,1.54c-3.18,2.34-6.35,4.69-9.39,7.21a77.5,77.5,0,0,0-11.11,11.07,83.72,83.72,0,0,0-18.72,45.58,83.55,83.55,0,0,0,.35,19.42,85.42,85.42,0,0,0,6.18,22,82.53,82.53,0,0,0,8.26,14.77,85,85,0,0,0,18.27,19.12,82.67,82.67,0,0,0,18.33,10.65,85.93,85.93,0,0,0,13.89,4.59,101.18,101.18,0,0,0,11.76,1.81,121.53,121.53,0,0,0,15.85.32,15.4,15.4,0,0,1,2.15.06c.12,0,.28,0,.3.17s-.14.15-.22.21c-3.26,2.34-6.49,4.71-9.79,7-2.06,1.43-4.28,2.6-6.46,3.82a90,90,0,0,1-40.6,11,94.72,94.72,0,0,1-17.32-1.12,88.76,88.76,0,0,1-16.75-4.29,90.67,90.67,0,0,1-36-24.13,91.48,91.48,0,0,1-10.53-14.09,90,90,0,0,1-7.93-16.67,88.71,88.71,0,0,1-4.33-17.74,90.1,90.1,0,0,1,34.94-83.89,93.33,93.33,0,0,1,13-8.18,91.37,91.37,0,0,1,39.25-10.13c2.64-.06,5.27-.16,7.91-.24A.87.87,0,0,1,2085.67,1149.81Z"/><path class="cls-5" d="M2122.7,1313.4a44.31,44.31,0,0,1-3.94,2.15,85.29,85.29,0,0,1-24.15,8,79.39,79.39,0,0,1-15.22,1.26,89,89,0,0,1-27.58-4.75,86.16,86.16,0,0,1-17.81-8.7,83.31,83.31,0,0,1-14.52-11.74,86,86,0,0,1-13.41-17.44,84.51,84.51,0,0,1-6.43-13.77,83.55,83.55,0,0,1-4.68-22.2,69.38,69.38,0,0,1-.13-10.69c.27-3.43.68-6.84,1.21-10.23a78.33,78.33,0,0,1,7-21.66,81.53,81.53,0,0,1,9.47-15.27,84.38,84.38,0,0,1,12.21-12.64,86.28,86.28,0,0,1,11-8,82.44,82.44,0,0,1,18.62-8.43,102.3,102.3,0,0,1,12.93-3,6.82,6.82,0,0,1,.79-.09c.12,0,.3-.07.36.1s-.11.21-.19.29c-1,1-2,2-3,3a86.68,86.68,0,0,0-10.69,12.81,92.45,92.45,0,0,0-11,21.74,77.13,77.13,0,0,0-3.91,17.36c-.37,3.43-.86,6.85-1,10.3a80.84,80.84,0,0,0,.33,9.21,85.81,85.81,0,0,0,2.67,15.09,95.15,95.15,0,0,0,7.46,19.08,97.25,97.25,0,0,0,10.61,15.68,81.94,81.94,0,0,0,11.85,11.85,87.49,87.49,0,0,0,13,9,93,93,0,0,0,13.87,6.37,85.76,85.76,0,0,0,19.53,4.71l4.38.53A.29.29,0,0,1,2122.7,1313.4Z"/><text class="cls-6" transform="translate(1260.76 1253.62)">47</text></svg>